# xmcd CD database file
#
# Track frame offsets:
#	150
#	15663
#	30047
#	44290
#	58711
#	72778
#	84969
#	98363
#	110961
#	125612
#	140664
#	155092
#	168284
#	182226
#	196323
#	211740
#	225780
#	240808
#	253995
#	269243
#	284547
#	300575
#	315041
#	329089
#
# Disc length: 4573 seconds
#
# Revision: 1
# Processed by: cddbd v1.5.1PL0 Copyright (c) Steve Scherf et al.
# Submitted via: CDex 1.51
#
DISCID=4711db18
DTITLE=Various Artist - Memphis Jug Band and Cannon's Jug Stompers, Disc A
DYEAR=2005
DGENRE=Blues
TTITLE0=Memphis Jug Band - Sun Brimmer's Blues
TTITLE1=Memphis Jug Band - Stingy Woman Blues
TTITLE2=Memphis Jug Band - Memphis Jug Blues
TTITLE3=Memphis Jug Band - Newport News Blues
TTITLE4=Memphis Jug Band - Sometimes I Think I Love You
TTITLE5=Memphis Jug Band - Sunshine Blues
TTITLE6=Memphis Jug Band - Memphis Boy Blues
TTITLE7=Memphis Jug Band - I'm Looking For The Bully Of The Town
TTITLE8=Memphis Jug Band - I Packed My Suitcase, Started To The Train
TTITLE9=Memphis Jug Band - State Of Tennessee Blues
TTITLE10=Memphis Jug Band - Bob Lee Junior Blues
TTITLE11=Memphis Jug Band - Kansas City Blues
TTITLE12=Memphis Jug Band - Beale Street Mess Around
TTITLE13=Memphis Jug Band - I'll See You In The Spring, When The Birds Begin To Sing
TTITLE14=Will Weldon - Turpentine Blues
TTITLE15=Will Weldon - Hitch Me To Your Buggy And Drive Me Like A Mule
TTITLE16=Vol Stevens - Vol Stevens Blues
TTITLE17=Vol Stevens - Baby Got The Rickets (Mama's Got The Mobile Blues)
TTITLE18=Memphis Jug Band - Snitchin' Gambler Blues
TTITLE19=Memphis Jug Band - Evergreen Money Blues
TTITLE20=Memphis Jug Band - Coal Oil Blues
TTITLE21=Memphis Jug Band - Papa Long Blues
TTITLE22=Memphis Jug Band - Peaches In The Springtime
TTITLE23=Memphis Jug Band - She Stays Out All Night Long
EXTD=YEAR: 2005
EXTT0=
EXTT1=
EXTT2=
EXTT3=
EXTT4=
EXTT5=
EXTT6=
EXTT7=
EXTT8=
EXTT9=
EXTT10=
EXTT11=
EXTT12=
EXTT13=
EXTT14=
EXTT15=
EXTT16=
EXTT17=
EXTT18=
EXTT19=
EXTT20=
EXTT21=
EXTT22=
EXTT23=
PLAYORDER=
